# xmcd
#
# Track frame offsets:
#	150
#	15840
#	33765
#	52260
#	69915
#	92933
#	105781
#	127494
#	149597
#	166135
#
# Disc length: 2797 seconds
#
# Revision: 1
# Processed by: cddbd v1.5.2PL0 Copyright (c) Steve Scherf et al.
# Submitted via: audiograbber 1.83.01
#
DISCID=810aeb0a
DTITLE=Ricky Skaggs - Live In London
DYEAR=2004
DGENRE=Country
TTITLE0=Uncle Pen
TTITLE1=Heartbroke
TTITLE2=She Didn't Say Why
TTITLE3=Cajun Moon
TTITLE4=Country Boy
TTITLE5=I've Got A New Heartache
TTITLE6=You Make Me Feel Like A Man
TTITLE7=Rockin' The Boat
TTITLE8=Honey ( Open That Door )
TTITLE9=Don't Get Above Your Raising
EXTD=
EXTT0=
EXTT1=
EXTT2=
EXTT3=
EXTT4=
EXTT5=
EXTT6=
EXTT7=
EXTT8=
EXTT9=
PLAYORDER=
